<?xml version="1.0" encoding="iso-8859-1"?>
<!-- Uploaded to: SVG Repo, www.svgrepo.com, Generator: SVG Repo Mixer Tools -->
<!DOCTYPE svg PUBLIC "-//W3C//DTD SVG 1.1//EN" "http://www.w3.org/Graphics/SVG/1.1/DTD/svg11.dtd">
<svg fill="#000000" version="1.1" id="Capa_1" xmlns="http://www.w3.org/2000/svg" xmlns:xlink="http://www.w3.org/1999/xlink" 
	 width="800px" height="800px" viewBox="0 0 383.028 383.027"
	 xml:space="preserve">
<g>
	<g>
		<path d="M361.213,244.172l-71.073-71.073c-16.042-16.042-37.632-23.216-58.648-21.562c1.653-21.019-5.521-42.609-21.563-58.651
			l-71.073-71.073c-29.084-29.084-76.408-29.083-105.492,0L21.814,33.361c-29.084,29.084-29.084,76.408,0,105.493l71.073,71.073
			c16.042,16.042,37.632,23.217,58.651,21.563c-1.654,21.02,5.52,42.607,21.563,58.65l71.073,71.073
			c29.084,29.084,76.408,29.083,105.492,0l11.548-11.548C390.297,320.58,390.297,273.256,361.213,244.172z M136.174,161.292
			l29.458,29.458c-14.997,8.932-34.734,6.955-47.629-5.94l-71.073-71.073c-15.233-15.234-15.233-40.022,0-55.258l11.549-11.548
			c15.235-15.235,40.023-15.235,55.259,0l71.072,71.073c12.896,12.895,14.873,32.632,5.94,47.63l-29.458-29.458
			c-6.937-6.937-18.181-6.937-25.117,0S129.238,154.354,136.174,161.292z M336.095,324.547l-11.548,11.548
			c-15.234,15.235-40.022,15.234-55.258,0l-71.073-71.073c-12.895-12.895-14.873-32.632-5.938-47.629l29.458,29.458
			c6.936,6.938,18.181,6.938,25.116,0c6.937-6.937,6.938-18.181,0-25.115l-29.458-29.459c14.998-8.934,34.735-6.956,47.631,5.939
			l71.072,71.073C351.331,284.523,351.331,309.312,336.095,324.547z"/>
	</g>
</g>
</svg>