<svg version="1.1" xmlns="http://www.w3.org/2000/svg" x="0" y="0" height="40" viewBox="0 0 117 46.1" class="sc-jdAMXn deAVRW"><path fill="#00a3a6" d="M9.9,28.4c-0.4,0.2-1.2,0.4-1.9,0.4c-0.7,0-1.3-0.2-1.8-0.6c-0.5-0.4-0.7-1-0.7-1.7V2.9H0V27 c0,2,0.6,3.5,1.8,4.7c1.2,1.2,2.7,1.8,4.7,1.8c1,0,1.8-0.1,2.3-0.3c0.5-0.2,1.7-0.6,3.1-1.4C11.3,31.1,10.3,29.4,9.9,28.4z"></path><path fill="#40806B" d="M60.5,13.7H55v19.1h5.4V13.7z"></path><path fill="#EFA40F" d="M55.5,9.4c0.6,0.6,1.4,0.9,2.3,0.9c1,0,1.7-0.3,2.3-0.9C60.7,8.8,61,8.1,61,7.2c0-0.9-0.3-1.6-0.9-2.2 c-0.6-0.6-1.4-0.9-2.3-0.9c-0.9,0-1.7,0.3-2.3,0.9c-0.6,0.6-0.9,1.3-0.9,2.2C54.6,8.1,54.9,8.8,55.5,9.4z"></path><path fill="#34515F" d="M84.3,28.6c0.9-1.5,1.3-3.3,1.3-5.3c0-2-0.4-3.7-1.3-5.3c-0.8-1.5-2-2.7-3.5-3.6c-1.4-0.9-3-1.3-4.7-1.3 c-2.4,0-4.5,0.7-6,2.1L69.2,16V2.9h-5.4v29.9c0,0,2.6,0.2,3.8-0.5c1.2-0.7,1.7-1.8,1.7-1.8l0.9,0.8c1.6,1.4,3.6,2.1,6,2.1 c1.7,0,3.3-0.4,4.7-1.3C82.3,31.3,83.5,30.1,84.3,28.6z M78.7,27.4c-1,1.1-2.4,1.6-4,1.6c-1,0-1.9-0.2-2.8-0.7c-0.8-0.5-1.5-1.2-2-2 c-0.5-0.9-0.8-1.9-0.8-3c0-1.1,0.3-2.1,0.8-3c0.5-0.9,1.2-1.6,2-2.1c0.8-0.5,1.8-0.7,2.8-0.7c1.6,0,2.9,0.6,4,1.6 c1,1.1,1.5,2.5,1.5,4.1C80.3,25,79.8,26.4,78.7,27.4z"></path><path fill="#40806B" d="M116.3,28.1l-4.8-1c-1,1.5-2.6,2.3-4.7,2.3c-1.2,0-2.3-0.4-3.2-1.2c-0.9-0.8-1.5-1.8-1.8-3.1l15,0l0-1.8 c0-2-0.5-3.8-1.4-5.4c-0.9-1.5-2.1-2.7-3.6-3.5c-1.5-0.8-3.2-1.2-5-1.2c-1.9,0-3.6,0.4-5.2,1.3c-1.6,0.9-2.8,2.1-3.7,3.6 c-0.9,1.5-1.4,3.3-1.4,5.3c0,2,0.5,3.8,1.4,5.3c0.9,1.5,2.2,2.7,3.7,3.6c1.6,0.8,3.3,1.3,5.2,1.3c2.3,0,4.3-0.5,5.9-1.5 C114.3,31.1,115.5,29.8,116.3,28.1z M102.1,20.8c0.3-1.1,1-2,1.9-2.6c0.9-0.6,1.9-0.9,3-0.9c1.1,0,2.1,0.3,2.9,0.9 c0.8,0.6,1.4,1.5,1.8,2.7l0.2,0.7h-9.9L102.1,20.8z"></path><path fill="#EFA40F" d="M96.7,28.5c-0.5,0.2-1,0.3-1.7,0.3c-0.7,0-1.3-0.2-1.8-0.6c-0.5-0.4-0.7-1-0.7-1.7V2.9H87V27 c0,2,0.6,3.5,1.8,4.7c1.2,1.2,2.7,1.8,4.7,1.8c1,0,1.8-0.1,2.3-0.3c0.5-0.2,0.8-0.2,1.7-0.7L96.7,28.5z"></path><path fill="#34515F" d="M47.6,31.8c-1.5-0.1-6.8-0.1-8.4-0.2c-1.5-0.1-2.4-1.6-1.9-2.7c1.4,0.6,2.9,0.9,4.6,0.9c1.8,0,3.4-0.4,4.9-1.1 c1.5-0.7,2.7-1.7,3.5-3c0.9-1.3,1.3-2.7,1.3-4.3c0-1.1-0.2-2.1-0.6-3c0.3-0.1,0.5-0.2,0.8-0.3c1.9-0.9,1.4-4.4,1.4-4.4 s-3.2,0.3-6.5,0.4c-1.5-0.7-3.1-1-4.9-1c-1.8,0-3.5,0.4-5,1.1c-1.5,0.7-2.7,1.7-3.6,3c-0.9,1.3-1.3,2.7-1.3,4.3 c0,1.6,0.4,3.1,1.3,4.3c0.2,0.4,0.5,0.7,0.8,1c-1.1,0.9-1.6,2.5-1.5,3.8c0.1,1,0.5,2.3,1.6,3.2c1,0.9,3,1.7,5.3,1.8 c2.3,0,4.8,0,5.5,0c1.4,0.1,2,0.4,2.4,0.8c0.2,0.2,0.3,0.5,0.3,0.8c0,0.3-0.1,0.6-0.3,0.8c-0.2,0.2-0.5,0.4-0.8,0.6 c-0.3,0.2-0.8,0.3-1.2,0.4c-0.5,0.1-1.3,0.2-2.1,0.3c-0.8,0-2.4,0.1-3.8,0.1c-1.5,0-2.7-0.1-3.5-0.6c-0.6-0.4-0.6-1.2-0.3-2 c-1.8-0.9-3.1-1.8-3.1-1.8c-0.7,0.8-1.3,1.8-1.3,2.9c0,0.7,0.2,1.9,0.4,2.5c0.3,0.6,0.6,1.1,1.1,1.5c0.5,0.4,1,0.8,1.6,1 c0.6,0.2,1.3,0.3,1.9,0.3h9.2c1.1,0,2.1-0.2,3-0.5c0.9-0.3,1.7-0.8,2.4-1.3c0.7-0.6,1.2-1.4,1.5-2.2c0.4-1.1,0.6-3.3-0.2-4.6 C51.5,33.1,50.3,32,47.6,31.8z M37.4,18.9c0.5-0.7,1.1-1.3,1.9-1.7c1.5-0.8,3.4-0.8,5,0c0.8,0.4,1.4,1,1.9,1.7 c0.5,0.7,0.7,1.6,0.7,2.5c0,0.9-0.2,1.8-0.7,2.5c-0.5,0.7-1.1,1.3-1.9,1.7c-0.8,0.4-1.6,0.6-2.5,0.6c-0.9,0-1.8-0.2-2.5-0.6 c-0.8-0.4-1.4-1-1.9-1.7c-0.5-0.7-0.7-1.6-0.7-2.5C36.7,20.5,36.9,19.6,37.4,18.9z"></path><path fill="#DA3510" d="M30.9,25l-4.8,0.5c-0.5,1.7-1.7,2.9-3.7,3.6c-1.2,0.4-2.3,0.3-3.4-0.2c-1.1-0.5-2-1.3-2.7-2.5l14.3-4.5 l-0.5-1.7c-0.7-1.9-1.7-3.5-3-4.7c-1.3-1.2-2.9-1.9-4.5-2.3c-1.7-0.3-3.4-0.2-5.2,0.4c-1.8,0.6-3.3,1.5-4.6,2.8 c-1.2,1.3-2,2.8-2.4,4.6c-0.4,1.7-0.3,3.6,0.3,5.4c0.6,1.9,1.6,3.4,3,4.6c1.3,1.2,2.9,1.9,4.7,2.3c1.8,0.3,3.6,0.2,5.3-0.4 c2.2-0.7,3.9-1.8,5.2-3.2C30,28.4,30.7,26.8,30.9,25z M15.1,22.4c0-1.2,0.3-2.2,1-3.1c0.7-0.9,1.5-1.5,2.5-1.8c1-0.3,2.1-0.3,3.1,0 c1,0.3,1.8,1,2.5,2l0.4,0.6l-9.5,3L15.1,22.4z"></path><path fill="#00a3a6" d="M92.4,24.2V2.9H87v21.2L92.4,24.2z"></path><path fill="#DA3510" d="M69.2,24.2V2.9h-5.5v21.2L69.2,24.2z"></path><path fill="#34515F" d="M60.5,13.7H55v10.4h5.4V13.7z"></path><path fill="#34515F" d="M5.4,24.2V2.9H0v21.2L5.4,24.2z"></path></svg>